<?xml version="1.0" standalone="no"?><!DOCTYPE svg PUBLIC "-//W3C//DTD SVG 1.1//EN" "http://www.w3.org/Graphics/SVG/1.1/DTD/svg11.dtd"><svg t="1722479477463" class="icon" viewBox="0 0 1454 1024" version="1.1" xmlns="http://www.w3.org/2000/svg" p-id="37811" xmlns:xlink="http://www.w3.org/1999/xlink" width="283.984375" height="200"><path d="M11.3664 74.496h1433.6v76.0064l-304.1792 200.192H679.5776l-233.856 193.3824-227.6608 17.1776L11.3664 758.6816z" fill="#604AB3" fill-opacity=".24" p-id="37812"></path><path d="M11.3664 743.2448l206.6944-195.9424 227.6608-17.0496 233.856-191.8976h461.2096L1444.9664 139.648v339.5328h-200.5248l-167.0144 168.064H623.7696l-241.7664 209.2032H11.3664z" fill="#AC70B8" fill-opacity=".24" p-id="37813"></path><path d="M11.3664 873.984h370.6368l241.7664-208.4608h453.6576l167.0144-167.4752H1444.9664v488.704H11.3664z" fill="#F69881" fill-opacity=".24" p-id="37814"></path><path d="M1444.9664 41.8816V74.496H11.3664V41.8816z" fill="#604AB3" p-id="37815"></path><path d="M1435.904 126.1056l18.1248 27.0592-308.2752 206.5408H685.5168l-233.3184 196.352-227.0208 17.4336-202.4448 196.864-22.7328-23.3472 210.944-205.056 228.3008-17.5616 234.3936-197.248 462.208-0.0256z" fill="#AC70B8" p-id="37816"></path><path d="M1444.9664 481.7408v32.5888l-193.9968-0.0256-166.9888 159.6928-454.4-0.0256-241.7408 198.7584H11.3664v-32.5888h364.7488l241.8176-198.7328 452.9664-0.0256 167.0144-159.6416z" fill="#F69881" p-id="37817"></path></svg>