<?xml version="1.0" standalone="no"?><!DOCTYPE svg PUBLIC "-//W3C//DTD SVG 1.1//EN" "http://www.w3.org/Graphics/SVG/1.1/DTD/svg11.dtd"><svg t="1722443965525" class="icon" viewBox="0 0 1024 1024" version="1.1" xmlns="http://www.w3.org/2000/svg" p-id="13375" xmlns:xlink="http://www.w3.org/1999/xlink" width="128" height="128"><path d="M897.4 892.4h-72.6c-20.6 0-37.5-16.9-37.5-37.5V608.4c0-20.6 16.9-37.5 37.5-37.5h72.6c20.6 0 37.5 16.9 37.5 37.5V855c0 20.6-16.9 37.4-37.5 37.4z" fill="#D9D9D9" p-id="13376"></path><path d="M659.2 892.4h-72.6c-20.6 0-37.5-16.9-37.5-37.5V330.4c0-20.6 16.9-37.5 37.5-37.5h72.6c20.6 0 37.5 16.9 37.5 37.5V855c-0.1 20.6-16.9 37.4-37.5 37.4z" fill="#FFAD40" p-id="13377"></path><path d="M420.9 892.4h-72.6c-20.6 0-37.5-16.9-37.5-37.5V82.7c0-20.6 16.9-37.5 37.5-37.5h72.6c20.6 0 37.5 16.9 37.5 37.5V855c-0.1 20.6-16.9 37.4-37.5 37.4z" fill="#D9D9D9" p-id="13378"></path><path d="M182.6 892.4H110c-20.6 0-37.5-16.9-37.5-37.5V506.3c0-20.6 16.9-37.5 37.5-37.5h72.6c20.6 0 37.5 16.9 37.5 37.5V855c0 20.6-16.9 37.4-37.5 37.4z" fill="#FFAD40" p-id="13379"></path><path d="M0.3 939.7h1022.2v37.5H0.3z" fill="#D9D9D9" p-id="13380"></path></svg>