<?xml version="1.0" standalone="no"?><!DOCTYPE svg PUBLIC "-//W3C//DTD SVG 1.1//EN" "http://www.w3.org/Graphics/SVG/1.1/DTD/svg11.dtd"><svg t="1722479382572" class="icon" viewBox="0 0 1024 1024" version="1.1" xmlns="http://www.w3.org/2000/svg" p-id="34552" xmlns:xlink="http://www.w3.org/1999/xlink" width="200" height="200"><path d="M144 880V106.666667h-37.333333v810.666666h810.666666v-37.333333H144z" fill="#0985F6" p-id="34553"></path><path d="M136 114.666667v773.333333h773.333333v21.333333h-794.666666v-794.666666h21.333333M144 106.666667h-37.333333v810.666666h810.666666v-37.333333H144V106.666667z" fill="#006FC1" p-id="34554"></path><path d="M236.906667 330.72h150.613333v193.333333H236.906667z" fill="#0985F6" p-id="34555"></path><path d="M387.52 524.053333V330.666667H317.546667V242.133333h16v-10.666666h-42.666667v10.666666h16V330.666667H236.906667v193.386666h69.973333v139.413334h-16v10.666666h42.666667v-10.666666h-16V524.053333z m-10.666667-182.72v106.133334H247.573333V341.333333zM247.573333 458.133333h129.28v55.253334H247.573333z" fill="#006FC1" p-id="34556"></path><path d="M681.653333 380.16h150.613334v193.333333h-150.613334z" fill="#FFA800" p-id="34557"></path><path d="M832.266667 573.493333V380.16h-69.973334V254.24h16v-10.666667h-42.666666v10.666667h16v125.92h-69.973334v193.333333h69.973334v139.413334h-16v10.666666h42.666666v-10.666666h-16v-139.413334z m-10.666667-182.666666v106.08h-129.28V390.826667z m-129.28 116.746666h129.28v55.253334h-129.28z" fill="#E29103" p-id="34558"></path><path d="M459.306667 415.626667h150.613333v257.333333H459.306667z" fill="#23B8BA" p-id="34559"></path><path d="M609.92 672.96V415.626667h-69.973333V348.373333h16v-10.666666h-42.666667v10.666666h16v67.253334H459.306667v257.333333h69.973333v134.08h-16v10.666667h42.666667v-10.666667h-16v-134.08z m-10.666667-246.666667v170.08H469.973333V426.293333z m-129.28 180.746667h129.28v55.253333H469.973333z" fill="#14A59E" p-id="34560"></path></svg>