<?xml version="1.0" standalone="no"?><!DOCTYPE svg PUBLIC "-//W3C//DTD SVG 1.1//EN" "http://www.w3.org/Graphics/SVG/1.1/DTD/svg11.dtd"><svg t="1722479563906" class="icon" viewBox="0 0 1024 1024" version="1.1" xmlns="http://www.w3.org/2000/svg" p-id="45834" xmlns:xlink="http://www.w3.org/1999/xlink" width="200" height="200"><path d="M144 880V106.666667h-37.333333v810.666666h810.666666v-37.333333H144z" fill="#0985F6" p-id="45835"></path><path d="M136 114.666667v773.333333h773.333333v21.333333h-794.666666v-794.666666h21.333333M144 106.666667h-37.333333v810.666666h810.666666v-37.333333H144V106.666667z" fill="#006FC1" p-id="45836"></path><path d="M270.133333 624.533333m-32 0a32 32 0 1 0 64 0 32 32 0 1 0-64 0Z" fill="#0985F6" p-id="45837"></path><path d="M270.133333 600.533333a24 24 0 1 1-24 24 24.053333 24.053333 0 0 1 24-24m0-8a32 32 0 1 0 32 32 32 32 0 0 0-32-32z" fill="#006FC1" p-id="45838"></path><path d="M380.693333 760.373333m-32 0a32 32 0 1 0 64 0 32 32 0 1 0-64 0Z" fill="#0985F6" p-id="45839"></path><path d="M380.693333 736.373333a24 24 0 1 1-24 24 24.053333 24.053333 0 0 1 24-24m0-8a32 32 0 1 0 32 32 32 32 0 0 0-32-32z" fill="#006FC1" p-id="45840"></path><path d="M436.693333 666.666667m-32 0a32 32 0 1 0 64 0 32 32 0 1 0-64 0Z" fill="#23B8BA" p-id="45841"></path><path d="M436.693333 642.666667a24 24 0 1 1-24 24 24.053333 24.053333 0 0 1 24-24m0-8a32 32 0 1 0 32 32 32 32 0 0 0-32-32z" fill="#14A59E" p-id="45842"></path><path d="M444.693333 496.426667m-32 0a32 32 0 1 0 64 0 32 32 0 1 0-64 0Z" fill="#23B8BA" p-id="45843"></path><path d="M444.693333 472.426667a24 24 0 1 1-24 24 24.053333 24.053333 0 0 1 24-24m0-8a32 32 0 1 0 32 32 32 32 0 0 0-32-32z" fill="#14A59E" p-id="45844"></path><path d="M734.72 674.666667m-32 0a32 32 0 1 0 64 0 32 32 0 1 0-64 0Z" fill="#23B8BA" p-id="45845"></path><path d="M734.72 650.666667a24 24 0 1 1-24 24 24.053333 24.053333 0 0 1 24-24m0-8a32 32 0 1 0 32 32 32 32 0 0 0-32-32z" fill="#14A59E" p-id="45846"></path><path d="M356.693333 342.56m-32 0a32 32 0 1 0 64 0 32 32 0 1 0-64 0Z" fill="#0985F6" p-id="45847"></path><path d="M356.693333 318.56a24 24 0 1 1-24 24 24.053333 24.053333 0 0 1 24-24m0-8a32 32 0 1 0 32 32 32 32 0 0 0-32-32z" fill="#006FC1" p-id="45848"></path><path d="M670.72 512.8m-32 0a32 32 0 1 0 64 0 32 32 0 1 0-64 0Z" fill="#FFA800" p-id="45849"></path><path d="M670.72 488.8a24 24 0 1 1-24 24 24.053333 24.053333 0 0 1 24-24m0-8a32 32 0 1 0 32 32 32 32 0 0 0-32-32z" fill="#E29103" p-id="45850"></path><path d="M564.266667 736.373333m-32 0a32 32 0 1 0 64 0 32 32 0 1 0-64 0Z" fill="#FFA800" p-id="45851"></path><path d="M564.266667 712.373333a24 24 0 1 1-24 24 24 24 0 0 1 24-24m0-8a32 32 0 1 0 32 32 32 32 0 0 0-32-32z" fill="#E29103" p-id="45852"></path><path d="M833.013333 426.133333m-32 0a32 32 0 1 0 64 0 32 32 0 1 0-64 0Z" fill="#FFA800" p-id="45853"></path><path d="M833.013333 402.133333a24 24 0 1 1-24 24 24.053333 24.053333 0 0 1 24-24m0-8a32 32 0 1 0 32 32 32 32 0 0 0-32-32z" fill="#E29103" p-id="45854"></path><path d="M734.72 254.56m-32 0a32 32 0 1 0 64 0 32 32 0 1 0-64 0Z" fill="#FFA800" p-id="45855"></path><path d="M734.72 230.56a24 24 0 1 1-24 24 24.053333 24.053333 0 0 1 24-24m0-8a32 32 0 1 0 32 32 32 32 0 0 0-32-32z" fill="#E29103" p-id="45856"></path><path d="M532.266667 385.066667m-32 0a32 32 0 1 0 64 0 32 32 0 1 0-64 0Z" fill="#FFA800" p-id="45857"></path><path d="M532.266667 361.066667a24 24 0 1 1-24 24 23.946667 23.946667 0 0 1 24-24m0-8a32 32 0 1 0 32 32 32 32 0 0 0-32-32z" fill="#E29103" p-id="45858"></path><path d="M825.013333 775.253333m-32 0a32 32 0 1 0 64 0 32 32 0 1 0-64 0Z" fill="#0985F6" p-id="45859"></path><path d="M825.013333 751.253333a24 24 0 1 1-24 24 24.053333 24.053333 0 0 1 24-24m0-8a32 32 0 1 0 32 32 32 32 0 0 0-32-32z" fill="#006FC1" p-id="45860"></path><path d="M224.373333 792.373333m-32 0a32 32 0 1 0 64 0 32 32 0 1 0-64 0Z" fill="#0985F6" p-id="45861"></path><path d="M224.373333 768.373333a24 24 0 1 1-24 24 24.053333 24.053333 0 0 1 24-24m0-8a32 32 0 1 0 32 32 32 32 0 0 0-32-32z" fill="#006FC1" p-id="45862"></path></svg>