<?xml version="1.0" standalone="no"?><!DOCTYPE svg PUBLIC "-//W3C//DTD SVG 1.1//EN" "http://www.w3.org/Graphics/SVG/1.1/DTD/svg11.dtd"><svg t="1722479319499" class="icon" viewBox="0 0 1024 1024" version="1.1" xmlns="http://www.w3.org/2000/svg" p-id="33368" xmlns:xlink="http://www.w3.org/1999/xlink" width="200" height="200"><path d="M900.7 908.5H271c-105.9 0-191.7-85.8-191.7-191.7V168.2c0-26.6 21.5-48.1 48.1-48.1s48.1 21.5 48.1 48.1v548.6c0 52.8 42.8 95.6 95.6 95.6h629.7c26.6 0 48.1 21.5 48.1 48.1-0.1 26.5-21.7 48-48.2 48z" fill="#BDD2EF" p-id="33369"></path><path d="M386.9 369.8H285.5c-20.9 0-37.9 17-37.9 37.9V683c0 20.9 17 37.9 37.9 37.9h101.4c20.9 0 37.9-17 37.9-37.9V407.8c0-21-16.9-38-37.9-38zM631 117.9h-77.8c-27.5 0-49.7 22.3-49.7 49.7v503.6c0 27.4 22.3 49.7 49.7 49.7H631c27.4 0 49.7-22.3 49.7-49.7V167.6c0-27.5-22.2-49.7-49.7-49.7zM894.1 278.6H802c-23.5 0-42.6 19.1-42.6 42.6v357.1c0 23.5 19.1 42.6 42.6 42.6h92.1c23.5 0 42.6-19.1 42.6-42.6V321.2c-0.1-23.6-19.1-42.6-42.6-42.6z" fill="#2867CE" p-id="33370"></path></svg>