<?xml version="1.0" standalone="no"?><!DOCTYPE svg PUBLIC "-//W3C//DTD SVG 1.1//EN" "http://www.w3.org/Graphics/SVG/1.1/DTD/svg11.dtd"><svg t="1722479416866" class="icon" viewBox="0 0 1024 1024" version="1.1" xmlns="http://www.w3.org/2000/svg" p-id="35676" xmlns:xlink="http://www.w3.org/1999/xlink" width="200" height="200"><path d="M256 189.866667l10.666667 61.866666c2.133333 14.933333 6.4 32 8.533333 46.933334 2.133333-14.933333 6.4-32 10.666667-46.933334l14.933333-61.866666h36.266667l14.933333 59.733333c4.266667 17.066667 8.533333 32 10.666667 49.066667 2.133333-14.933333 4.266667-32 8.533333-49.066667l12.8-59.733333h42.666667l-44.8 147.2h-42.666667l-12.8-51.2c-4.266667-14.933333-6.4-27.733333-8.533333-44.8-2.133333 17.066667-6.4 32-8.533334 44.8l-14.933333 51.2h-42.666667l-42.666666-147.2H256zM582.4 262.4c0 55.466667-38.4 76.8-74.666667 76.8-42.666667 0-72.533333-27.733333-72.533333-74.666667 0-49.066667 32-76.8 74.666667-76.8 44.8 0 72.533333 29.866667 72.533333 74.666667z m-100.266667 2.133333c0 25.6 8.533333 44.8 27.733334 44.8 17.066667 0 25.6-19.2 25.6-44.8 0-21.333333-6.4-44.8-25.6-44.8-21.333333 0-27.733333 23.466667-27.733334 44.8zM610.133333 236.8c0-19.2 0-34.133333-2.133333-46.933333h38.4l2.133333 25.6h2.133334c8.533333-19.2 23.466667-27.733333 38.4-27.733334h10.666666v40.533334h-10.666666c-14.933333 0-27.733333 8.533333-29.866667 21.333333 0 2.133333-2.133333 6.4-2.133333 10.666667v74.666666h-44.8v-98.133333zM855.466667 125.866667v166.4c0 14.933333 0 32 2.133333 42.666666h-40.533333l-2.133334-19.2c-8.533333 14.933333-25.6 23.466667-42.666666 23.466667-34.133333 0-59.733333-32-59.733334-74.666667 0-49.066667 29.866667-76.8 61.866667-76.8 17.066667 0 29.866667 6.4 36.266667 17.066667V125.866667h44.8zM810.666667 251.733333v-8.533333c-2.133333-10.666667-10.666667-21.333333-23.466667-21.333333-19.2 0-29.866667 19.2-29.866667 42.666666 0 25.6 10.666667 40.533333 27.733334 40.533334 10.666667 0 21.333333-6.4 23.466666-19.2 0-2.133333 2.133333-6.4 2.133334-10.666667v-23.466667zM217.6 541.866667c-6.4 2.133333-17.066667 4.266667-29.866667 4.266666-38.4 0-61.866667-23.466667-61.866666-64 0-36.266667 23.466667-66.133333 68.266666-66.133333 8.533333 0 19.2 2.133333 25.6 4.266667l-6.4 29.866666c-4.266667-2.133333-10.666667-4.266667-19.2-4.266666-19.2 0-32 14.933333-32 36.266666 0 23.466667 12.8 36.266667 32 36.266667 8.533333 0 14.933333-2.133333 19.2-4.266667l4.266667 27.733334zM234.666667 364.8h38.4v181.333333H234.666667v-181.333333zM411.733333 480c0 46.933333-32 66.133333-59.733333 66.133333-34.133333 0-59.733333-23.466667-59.733333-64 0-42.666667 25.6-66.133333 61.866666-66.133333 34.133333 0 57.6 25.6 57.6 64z m-81.066666 2.133333c0 21.333333 6.4 38.4 23.466666 38.4 14.933333 0 21.333333-17.066667 21.333334-38.4 0-17.066667-6.4-38.4-21.333334-38.4-17.066667 0-23.466667 19.2-23.466666 38.4zM541.866667 505.6v40.533333H512l-2.133333-17.066666c-4.266667 8.533333-17.066667 19.2-36.266667 19.2-25.6 0-40.533333-17.066667-40.533333-53.333334v-74.666666H469.333333v68.266666c0 17.066667 4.266667 27.733333 17.066667 27.733334 8.533333 0 14.933333-6.4 17.066667-12.8 0-2.133333 2.133333-6.4 2.133333-8.533334v-76.8h38.4v87.466667zM680.533333 364.8v179.2h-32l-2.133333-17.066667c-6.4 12.8-21.333333 19.2-36.266667 19.2-27.733333 0-49.066667-25.6-49.066666-64 0-42.666667 23.466667-66.133333 51.2-66.133333 14.933333 0 23.466667 6.4 29.866666 12.8V362.666667h38.4z m-36.266666 106.666667v-6.4c-2.133333-10.666667-8.533333-17.066667-19.2-17.066667-17.066667 0-23.466667 17.066667-23.466667 36.266667 0 21.333333 8.533333 34.133333 23.466667 34.133333 8.533333 0 17.066667-6.4 19.2-17.066667v-29.866666z" fill="#4C64FE" p-id="35677"></path><path d="M744.533333 445.866667c-2.133333 0-6.4 2.133333-10.666666 2.133333-12.8 0-19.2-6.4-19.2-19.2 0-10.666667 8.533333-19.2 21.333333-19.2 2.133333 0 6.4 0 8.533333 2.133333l-2.133333 8.533334h-6.4c-6.4 0-10.666667 4.266667-10.666667 10.666666s4.266667 10.666667 10.666667 10.666667h6.4l2.133333 4.266667zM750.933333 394.666667h12.8v51.2h-12.8v-51.2zM808.533333 426.666667c0 12.8-10.666667 19.2-19.2 19.2-10.666667 0-19.2-6.4-19.2-19.2 0-12.8 8.533333-19.2 19.2-19.2 10.666667 2.133333 19.2 8.533333 19.2 19.2z m-25.6 2.133333c0 6.4 2.133333 10.666667 6.4 10.666667 4.266667 0 6.4-4.266667 6.4-10.666667 0-4.266667-2.133333-10.666667-6.4-10.666667-6.4 0-6.4 4.266667-6.4 10.666667zM849.066667 435.2v10.666667h-10.666667v-4.266667c-2.133333 2.133333-4.266667 6.4-10.666667 6.4-8.533333 0-12.8-4.266667-12.8-14.933333v-21.333334h12.8v19.2c0 4.266667 2.133333 8.533333 6.4 8.533334 2.133333 0 4.266667-2.133333 4.266667-4.266667v-23.466667h12.8v23.466667zM893.866667 394.666667v51.2h-10.666667v-4.266667c-2.133333 4.266667-6.4 6.4-10.666667 6.4-8.533333 0-14.933333-8.533333-14.933333-19.2 0-12.8 8.533333-19.2 17.066667-19.2 4.266667 0 8.533333 2.133333 8.533333 4.266667v-19.2h10.666667z m-10.666667 29.866666c0-4.266667-2.133333-6.4-6.4-6.4-4.266667 0-8.533333 4.266667-8.533333 10.666667s2.133333 10.666667 6.4 10.666667c2.133333 0 6.4-2.133333 6.4-4.266667v-10.666667z" fill="#4C64FE" p-id="35678"></path><path d="M727.466667 482.133333l2.133333 17.066667c0 4.266667 2.133333 8.533333 2.133333 12.8 0-4.266667 2.133333-8.533333 2.133334-12.8l4.266666-17.066667h10.666667l4.266667 17.066667c2.133333 4.266667 2.133333 8.533333 2.133333 12.8 0-4.266667 2.133333-8.533333 2.133333-12.8l4.266667-17.066667h12.8l-12.8 40.533334h-10.666667l-4.266666-12.8c0-4.266667-2.133333-8.533333-2.133334-12.8 0 4.266667-2.133333 8.533333-2.133333 12.8l-4.266667 14.933333H725.333333l-12.8-40.533333h14.933334zM819.2 503.466667c0 14.933333-10.666667 21.333333-21.333333 21.333333-12.8 0-21.333333-8.533333-21.333334-21.333333s8.533333-21.333333 21.333334-21.333334 21.333333 8.533333 21.333333 21.333334z m-29.866667 0c0 6.4 2.133333 12.8 8.533334 12.8 4.266667 0 6.4-6.4 6.4-12.8s-2.133333-12.8-6.4-12.8c-6.4 0-8.533333 6.4-8.533334 12.8zM825.6 494.933333v-12.8h10.666667v6.4c2.133333-6.4 6.4-8.533333 10.666666-8.533333h2.133334v10.666667h-4.266667c-4.266667 0-8.533333 2.133333-8.533333 6.4v21.333333h-12.8v-23.466667zM896 465.066667V524.8h-10.666667v-6.4c-2.133333 4.266667-6.4 6.4-12.8 6.4-10.666667 0-17.066667-8.533333-17.066666-21.333333s8.533333-21.333333 17.066666-21.333334c4.266667 0 8.533333 2.133333 10.666667 4.266667v-21.333333h12.8z m-12.8 34.133333v-2.133333c0-2.133333-2.133333-6.4-6.4-6.4-6.4 0-8.533333 4.266667-8.533333 10.666666s2.133333 10.666667 8.533333 10.666667c2.133333 0 6.4-2.133333 6.4-4.266667v-8.533333z" fill="#4C64FE" p-id="35679"></path><path d="M151.466667 612.266667l6.4 38.4c2.133333 10.666667 4.266667 19.2 4.266666 29.866666 2.133333-10.666667 4.266667-21.333333 6.4-29.866666l8.533334-38.4h19.2l8.533333 38.4 6.4 32c2.133333-10.666667 2.133333-21.333333 4.266667-32l6.4-36.266667h23.466666l-25.6 93.866667h-21.333333l-8.533333-32c-2.133333-8.533333-4.266667-17.066667-4.266667-29.866667-2.133333 12.8-2.133333 21.333333-4.266667 29.866667l-8.533333 34.133333H149.333333l-23.466666-93.866667h25.6zM330.666667 657.066667c0 34.133333-21.333333 49.066667-42.666667 49.066666-23.466667 0-40.533333-17.066667-40.533333-49.066666 0-29.866667 17.066667-49.066667 42.666666-49.066667 23.466667 2.133333 40.533333 21.333333 40.533334 49.066667z m-57.6 2.133333c0 17.066667 6.4 27.733333 17.066666 27.733333s14.933333-10.666667 14.933334-27.733333c0-14.933333-4.266667-27.733333-14.933334-27.733333-12.8 0-17.066667 12.8-17.066666 27.733333zM341.333333 642.133333v-32h21.333334v17.066667c4.266667-12.8 14.933333-19.2 21.333333-19.2h6.4v27.733333H384c-8.533333 0-14.933333 6.4-17.066667 14.933334V704H341.333333v-61.866667zM477.866667 569.6V706.133333h-21.333334v-12.8c-4.266667 10.666667-14.933333 14.933333-25.6 14.933334-19.2 0-34.133333-19.2-34.133333-49.066667 0-32 17.066667-49.066667 36.266667-49.066667 10.666667 0 17.066667 4.266667 21.333333 10.666667v-51.2h23.466667z m-25.6 83.2v-4.266667c-2.133333-8.533333-6.4-14.933333-14.933334-14.933333-10.666667 0-17.066667 12.8-17.066666 27.733333 0 14.933333 6.4 25.6 17.066666 25.6 6.4 0 12.8-6.4 14.933334-14.933333V652.8zM582.4 704c-4.266667 2.133333-12.8 4.266667-21.333333 4.266667-25.6 0-42.666667-19.2-42.666667-49.066667 0-27.733333 17.066667-49.066667 46.933333-49.066667 6.4 0 14.933333 2.133333 19.2 4.266667l-4.266666 21.333333c-2.133333-2.133333-6.4-2.133333-14.933334-2.133333-12.8 0-21.333333 10.666667-21.333333 25.6 0 17.066667 10.666667 25.6 21.333333 25.6 6.4 0 10.666667-2.133333 14.933334-2.133333l2.133333 21.333333zM590.933333 569.6h25.6v136.533333h-25.6v-136.533333zM712.533333 657.066667c0 34.133333-21.333333 49.066667-42.666666 49.066666-23.466667 0-40.533333-17.066667-40.533334-49.066666 0-29.866667 17.066667-49.066667 42.666667-49.066667 23.466667 2.133333 40.533333 21.333333 40.533333 49.066667z m-57.6 2.133333c0 17.066667 6.4 27.733333 17.066667 27.733333s14.933333-10.666667 14.933333-27.733333c0-14.933333-4.266667-27.733333-14.933333-27.733333-12.8 0-17.066667 12.8-17.066667 27.733333zM800 676.266667v29.866666h-21.333333l-2.133334-12.8c-2.133333 6.4-10.666667 14.933333-25.6 14.933334-17.066667 0-27.733333-12.8-27.733333-40.533334v-55.466666h25.6v51.2c0 12.8 4.266667 21.333333 12.8 21.333333 6.4 0 10.666667-6.4 12.8-10.666667v-61.866666h25.6v64zM893.866667 569.6V706.133333h-21.333334v-12.8c-4.266667 10.666667-14.933333 14.933333-25.6 14.933334-19.2 0-34.133333-19.2-34.133333-49.066667 0-32 17.066667-49.066667 36.266667-49.066667 10.666667 0 17.066667 4.266667 21.333333 10.666667v-51.2h23.466667z m-25.6 83.2v-4.266667c-2.133333-8.533333-6.4-14.933333-14.933334-14.933333-10.666667 0-17.066667 12.8-17.066666 27.733333 0 14.933333 6.4 25.6 17.066666 25.6 6.4 0 12.8-6.4 14.933334-14.933333V652.8z" fill="#4C64FE" opacity=".6" p-id="35680"></path><path d="M343.466667 802.133333l6.4 38.4c2.133333 10.666667 4.266667 19.2 4.266666 29.866667 2.133333-10.666667 4.266667-21.333333 6.4-29.866667l10.666667-38.4h23.466667l10.666666 38.4 6.4 32c2.133333-10.666667 2.133333-21.333333 4.266667-32l8.533333-38.4h29.866667L428.8 896h-27.733333l-8.533334-32c-2.133333-8.533333-4.266667-17.066667-6.4-29.866667-2.133333 10.666667-4.266667 21.333333-6.4 29.866667l-10.666666 32H341.333333l-27.733333-93.866667h29.866667zM561.066667 849.066667c0 36.266667-25.6 49.066667-49.066667 49.066666-27.733333 0-49.066667-17.066667-49.066667-49.066666 0-32 21.333333-49.066667 49.066667-49.066667 29.866667 0 49.066667 19.2 49.066667 49.066667z m-66.133334 0c0 17.066667 6.4 27.733333 19.2 27.733333 10.666667 0 17.066667-12.8 17.066667-27.733333 0-12.8-4.266667-27.733333-17.066667-27.733334-14.933333-2.133333-19.2 12.8-19.2 27.733334zM578.133333 832v-29.866667h25.6l2.133334 17.066667c4.266667-12.8 17.066667-19.2 25.6-19.2h6.4v27.733333h-8.533334c-10.666667 0-17.066667 4.266667-19.2 14.933334V896h-29.866666v-64zM742.4 759.466667v134.4h-27.733333l-2.133334-12.8c-6.4 8.533333-17.066667 14.933333-27.733333 14.933333-23.466667 0-40.533333-19.2-40.533333-49.066667 0-32 19.2-49.066667 42.666666-49.066666 10.666667 0 19.2 4.266667 23.466667 10.666666v-49.066666h32z m-29.866667 81.066666v-6.4c-2.133333-6.4-6.4-12.8-14.933333-12.8-12.8 0-19.2 12.8-19.2 27.733334 0 17.066667 8.533333 25.6 19.2 25.6 6.4 0 12.8-4.266667 14.933333-12.8v-21.333334z" fill="#4C64FE" p-id="35681"></path><path d="M256 738.133333l6.4 21.333334c2.133333 4.266667 2.133333 8.533333 4.266667 12.8 0-4.266667 2.133333-8.533333 4.266666-12.8l6.4-21.333334h6.4l6.4 21.333334c2.133333 4.266667 2.133333 8.533333 4.266667 12.8 0-4.266667 2.133333-8.533333 4.266667-12.8l6.4-21.333334h8.533333l-14.933333 42.666667h-6.4l-6.4-19.2c-2.133333-4.266667-2.133333-8.533333-4.266667-12.8-2.133333 4.266667-2.133333 8.533333-4.266667 12.8l-6.4 19.2h-6.4l-12.8-40.533333h4.266667zM354.133333 759.466667c0 14.933333-10.666667 21.333333-21.333333 21.333333-12.8 0-21.333333-8.533333-21.333333-21.333333s10.666667-21.333333 21.333333-21.333334c12.8 0 21.333333 8.533333 21.333333 21.333334z m-34.133333 0c0 8.533333 6.4 14.933333 12.8 14.933333 8.533333 0 12.8-6.4 12.8-17.066667 0-6.4-4.266667-14.933333-12.8-14.933333-8.533333 0-12.8 8.533333-12.8 17.066667zM360.533333 750.933333v-12.8h6.4v8.533334c2.133333-6.4 6.4-8.533333 12.8-8.533334h2.133334v6.4h-2.133334c-6.4 0-8.533333 4.266667-10.666666 8.533334v25.6h-8.533334v-27.733334zM422.4 718.933333v59.733334h-6.4v-6.4c-2.133333 4.266667-8.533333 8.533333-14.933333 8.533333-10.666667 0-19.2-8.533333-19.2-21.333333s8.533333-21.333333 19.2-21.333334c6.4 0 10.666667 2.133333 12.8 6.4v-25.6h8.533333z m-8.533333 36.266667v-4.266667c-2.133333-4.266667-6.4-8.533333-10.666667-8.533333-8.533333 0-12.8 6.4-12.8 14.933333 0 8.533333 4.266667 14.933333 12.8 14.933334 4.266667 0 10.666667-4.266667 10.666667-8.533334v-8.533333zM475.733333 778.666667c-2.133333 0-6.4 2.133333-12.8 2.133333-12.8 0-21.333333-8.533333-21.333333-21.333333s8.533333-21.333333 23.466667-21.333334c4.266667 0 8.533333 2.133333 10.666666 2.133334l-2.133333 6.4c-2.133333 0-4.266667-2.133333-8.533333-2.133334-10.666667 0-14.933333 6.4-14.933334 14.933334 0 8.533333 6.4 14.933333 14.933334 14.933333 4.266667 0 8.533333 0 10.666666-2.133333v6.4zM480 718.933333h8.533333v59.733334h-8.533333v-59.733334zM537.6 759.466667c0 14.933333-10.666667 21.333333-21.333333 21.333333-12.8 0-21.333333-8.533333-21.333334-21.333333s10.666667-21.333333 21.333334-21.333334c12.8 0 21.333333 8.533333 21.333333 21.333334z m-34.133333 0c0 8.533333 6.4 14.933333 12.8 14.933333 8.533333 0 12.8-6.4 12.8-17.066667 0-6.4-4.266667-14.933333-12.8-14.933333-8.533333 0-12.8 8.533333-12.8 17.066667zM580.266667 768v10.666667h-6.4v-6.4c-2.133333 4.266667-6.4 8.533333-14.933334 8.533333-6.4 0-14.933333-4.266667-14.933333-17.066667v-23.466666h8.533333v23.466666c0 8.533333 2.133333 12.8 10.666667 12.8 6.4 0 8.533333-4.266667 10.666667-6.4v-29.866666h8.533333V768zM625.066667 718.933333v59.733334H618.666667v-6.4c-2.133333 4.266667-8.533333 8.533333-14.933334 8.533333-10.666667 0-19.2-8.533333-19.2-21.333333s8.533333-21.333333 19.2-21.333334c6.4 0 10.666667 2.133333 12.8 6.4v-25.6h8.533334z m-6.4 36.266667v-4.266667c-2.133333-4.266667-6.4-8.533333-10.666667-8.533333-8.533333 0-12.8 6.4-12.8 14.933333 0 8.533333 4.266667 14.933333 12.8 14.933334 4.266667 0 10.666667-4.266667 10.666667-8.533334v-8.533333z" fill="#4C64FE" p-id="35682"></path></svg>